<svg width="14" height="16" viewBox="0 0 14 16" fill="none" xmlns="http://www.w3.org/2000/svg">
<path d="M13.6456 2.961C13.4338 2.74894 13.1824 2.6429 12.8923 2.6429H11.821V1.8393C11.821 1.47107 11.6897 1.15575 11.4275 0.893475C11.1651 0.631197 10.8499 0.5 10.4815 0.5H9.94596C9.57758 0.5 9.26233 0.631197 9.00005 0.893504C8.73769 1.15575 8.60655 1.47109 8.60655 1.83933V2.64293H5.39243V1.83933C5.39243 1.47109 5.26124 1.15578 4.99893 0.893504C4.73668 0.631197 4.4214 0.5 4.05302 0.5H3.51735C3.14906 0.5 2.83375 0.631197 2.57144 0.893504C2.30919 1.15575 2.17797 1.47109 2.17797 1.83933V2.64293H1.10664C0.816389 2.64293 0.565311 2.74897 0.353255 2.96103C0.141199 3.17305 0.0351562 3.42425 0.0351562 3.71441V14.4287C0.0351562 14.7186 0.141199 14.9698 0.353255 15.182C0.565281 15.394 0.816359 15.5 1.10664 15.5H12.8921C13.1822 15.5 13.4336 15.394 13.6454 15.182C13.8575 14.9699 13.9635 14.7186 13.9635 14.4287V3.71438C13.9635 3.42413 13.8575 3.17305 13.6456 2.961ZM3.51726 14.4285H1.10664V12.0177H3.51726V14.4285ZM3.51726 11.4822H1.10664V8.80375H3.51726V11.4822ZM3.51726 8.26779H1.10664V5.85719H3.51726V8.26779ZM3.32904 4.43835C3.27601 4.38532 3.24953 4.32266 3.24953 4.25004V1.83941C3.24953 1.76688 3.27601 1.70405 3.32904 1.65111C3.38208 1.59807 3.44473 1.5716 3.51735 1.5716H4.05302C4.12555 1.5716 4.18838 1.59807 4.24133 1.65111C4.29436 1.70408 4.3209 1.76688 4.3209 1.83941V4.25004C4.3209 4.32269 4.29425 4.38534 4.24133 4.43835C4.18835 4.49139 4.12564 4.51786 4.05302 4.51786H3.51735C3.44482 4.51789 3.38208 4.49139 3.32904 4.43835ZM6.73155 14.4285H4.05293V12.0177H6.73155V14.4285ZM6.73155 11.4822H4.05293V8.80375H6.73155V11.4822ZM6.73155 8.26779H4.05293V5.85719H6.73155V8.26779ZM9.94596 14.4285H7.26737V12.0177H9.94596V14.4285ZM9.94596 11.4822H7.26737V8.80375H9.94596V11.4822ZM9.94596 8.26779H7.26737V5.85719H9.94596V8.26779ZM9.75753 4.43835C9.70456 4.38532 9.67817 4.32266 9.67817 4.25004V1.83941C9.67817 1.76688 9.70456 1.70405 9.75753 1.65111C9.81054 1.59807 9.87331 1.5716 9.94596 1.5716H10.4815C10.5542 1.5716 10.6169 1.59807 10.67 1.65111C10.723 1.70408 10.7493 1.76688 10.7493 1.83941V4.25004C10.7493 4.32269 10.7229 4.38534 10.67 4.43835C10.617 4.49139 10.5542 4.51786 10.4815 4.51786H9.94596C9.87334 4.51789 9.81034 4.49139 9.75753 4.43835ZM12.8921 14.4285H10.4813V12.0177H12.8921V14.4285ZM12.8921 11.4822H10.4813V8.80375H12.8921V11.4822ZM12.8921 8.26779H10.4813V5.85719H12.8921V8.26779Z" fill="#848484"/>
</svg>
