<svg width="20" height="21" viewBox="0 0 20 21" fill="none" xmlns="http://www.w3.org/2000/svg">
<path d="M0.5 0.5H19.5V16C19.5 18.4853 17.4853 20.5 15 20.5H5C2.51472 20.5 0.5 18.4853 0.5 16V0.5Z" fill="white" stroke="#848484"/>
<path fill-rule="evenodd" clip-rule="evenodd" d="M6.35689 15.7619C6.35689 15.7619 6.5555 16.6668 7.57776 16.6668H12.2C13.2222 16.6668 13.4208 15.7619 13.4208 15.7619L14.3333 6.88907H5.44443L6.35689 15.7619ZM11.6667 8.22242C11.6667 7.97694 11.8656 7.77799 12.1111 7.77799C12.3566 7.77799 12.5556 7.97694 12.5556 8.22242L12.1111 14.8891C12.1111 15.1346 11.9121 15.3335 11.6667 15.3335C11.4212 15.3335 11.2222 15.1345 11.2222 14.8891L11.6667 8.22242ZM9.44444 8.22242C9.44444 7.97694 9.64344 7.77799 9.88888 7.77799C10.1344 7.77799 10.3333 7.97694 10.3333 8.22242V14.8891C10.3333 15.1346 10.1344 15.3335 9.88888 15.3335C9.64339 15.3335 9.44444 15.1345 9.44444 14.8891V8.22242ZM7.66666 7.77794C7.91214 7.77794 8.11109 7.97689 8.11109 8.22237L8.55557 14.889C8.55557 15.1345 8.35658 15.3335 8.11109 15.3335C7.86566 15.3335 7.66666 15.1345 7.66666 14.889L7.22222 8.22242C7.22222 7.97694 7.42122 7.77794 7.66666 7.77794ZM14.0666 5.11198H12.1111V4.22241C12.1111 3.54814 11.893 3.3335 11.2222 3.3335H8.55553C7.94025 3.3335 7.66666 3.63152 7.66666 4.22241V5.11203H5.71113C5.31809 5.11203 5 5.41035 5 5.779C5 6.1477 5.31809 6.44603 5.71113 6.44603H14.0666C14.4597 6.44603 14.7778 6.1477 14.7778 5.779C14.7778 5.41035 14.4597 5.11198 14.0666 5.11198ZM11.2222 5.11198H8.55557L8.55562 4.22237H11.2223V5.11198H11.2222Z" fill="#848484"/>
</svg>
