<svg width="22" height="22" viewBox="0 0 22 22" fill="none" xmlns="http://www.w3.org/2000/svg">
<path d="M2.5 9.4H7.1C7.37614 9.4 7.6 9.17614 7.6 8.9V1.5C7.6 1.22386 7.82386 1 8.1 1H13.9C14.1761 1 14.4 1.22386 14.4 1.5V8.9C14.4 9.17614 14.6239 9.4 14.9 9.4H19.5L11 16L2.5 9.4Z" fill="#848484" stroke="#848484" stroke-width="0.25"/>
<path d="M20.5 18H1.5C1.22386 18 1 18.2239 1 18.5V20.5C1 20.7761 1.22386 21 1.5 21H20.5C20.7761 21 21 20.7761 21 20.5V18.5C21 18.2239 20.7761 18 20.5 18Z" fill="#848484" stroke="#848484" stroke-width="0.25"/>
</svg>
