<svg width="25" height="16" viewBox="0 0 25 16" fill="none" xmlns="http://www.w3.org/2000/svg">
<path d="M24.7211 7.04184C23.4188 4.92143 21.6678 3.2177 19.4684 1.93068C17.2688 0.643608 14.9461 0 12.5 0C10.0539 0 7.73114 0.643365 5.53153 1.93068C3.33188 3.2177 1.58099 4.92143 0.278915 7.04184C0.0929879 7.36588 0 7.68535 0 8.00024C0 8.31514 0.0929879 8.63461 0.278915 8.95855C1.58099 11.0791 3.33188 12.7829 5.53153 14.0697C7.73114 15.3569 10.0539 16 12.5 16C14.9461 16 17.2688 15.359 19.4684 14.0767C21.6678 12.7943 23.4191 11.0882 24.7211 8.95855C24.9071 8.63461 25 8.31529 25 8.00024C25 7.68535 24.9071 7.36588 24.7211 7.04184ZM9.50733 3.24309C10.3397 2.41443 11.3371 1.99995 12.4999 1.99995C12.6858 1.99995 12.844 2.06494 12.9743 2.19449C13.1043 2.32409 13.1697 2.48156 13.1697 2.66672C13.1697 2.85201 13.1043 3.00939 12.9746 3.13879C12.8445 3.26853 12.6862 3.33333 12.5002 3.33333C11.7004 3.33333 11.0166 3.61588 10.4493 4.18058C9.88188 4.74562 9.59832 5.4261 9.59832 6.22237C9.59832 6.40776 9.53304 6.56504 9.40291 6.69474C9.27259 6.82453 9.11457 6.88928 8.92859 6.88928C8.74247 6.88928 8.5844 6.82438 8.45412 6.69474C8.3238 6.56504 8.25872 6.40757 8.25872 6.22237C8.25872 5.06504 8.67504 4.0718 9.50733 3.24309ZM18.5618 12.5353C16.6969 13.66 14.6764 14.2227 12.5 14.2227C10.3237 14.2227 8.30313 13.6603 6.43839 12.5353C4.57365 11.4102 3.02276 9.89857 1.78583 8.00024C3.19951 5.81494 4.97126 4.18053 7.10109 3.09739C6.53378 4.06023 6.25002 5.10201 6.25002 6.22232C6.25002 7.93549 6.86165 9.40042 8.08457 10.6182C9.30748 11.836 10.7795 12.4446 12.5 12.4446C14.2207 12.4446 15.6922 11.8357 16.9154 10.6182C18.1386 9.40076 18.75 7.93549 18.75 6.22232C18.75 5.10201 18.4662 4.06008 17.8989 3.09739C20.0286 4.18053 21.8004 5.81509 23.2141 8.00024C21.9773 9.89857 20.4266 11.4102 18.5618 12.5353Z" fill="#848484"/>
</svg>
