<svg width="12" height="12" viewBox="0 0 12 12" fill="none" xmlns="http://www.w3.org/2000/svg">
<path d="M10.4039 3.30557H10.4038V2.22227C10.4038 1.8724 10.3494 1.55813 10.1282 1.34513C9.90996 1.13488 9.59058 1.0834 9.23079 1.0834H3.23079C2.87665 1.0834 2.55917 1.13546 2.33991 1.34403C2.11713 1.55597 2.05779 1.86906 2.05779 2.22227V3.55557C2.05779 3.8981 2.11845 4.20741 2.3377 4.42122C2.55506 4.63319 2.87055 4.69443 3.23079 4.69443H9.23084C9.585 4.69443 9.90247 4.64236 10.1217 4.43379C10.3445 4.22185 10.4039 3.90876 10.4039 3.55557V3.30557ZM11.75 2.10358V3.66651V3.66652V3.66653V3.66654V3.66654V3.66655V3.66656V3.66656V3.66657V3.66658V3.66659V3.66659V3.6666V3.66661V3.66662V3.66662V3.66663V3.66664V3.66664V3.66665V3.66666V11C11.75 11.4141 11.4142 11.75 10.9999 11.75H10.9943C10.8656 11.75 10.7665 11.75 10.6828 11.7446L10.4167 11.7274V11.75H10.4038V6.66665C10.4038 6.31879 10.3438 6.00761 10.1228 5.79473C9.90449 5.58443 9.58802 5.52778 9.23079 5.52778H2.76926C2.42388 5.52778 2.10722 5.5759 1.88606 5.78108C1.65982 5.99096 1.59621 6.30486 1.59621 6.66665V11.1111C1.59621 11.2353 1.60042 11.3451 1.60386 11.435C1.60494 11.463 1.60593 11.489 1.60671 11.5129C1.61027 11.6232 1.60829 11.6781 1.60148 11.7107L1.59621 11.736V11.75H1.58337V11.7338L1.3228 11.7449C1.23415 11.7486 1.12807 11.75 1 11.75C0.585814 11.75 0.25 11.4142 0.25 11V1.00006C0.25 0.585837 0.585822 0.25005 1 0.25005C1.11754 0.25005 1.22745 0.250445 1.33171 0.251137L1.58337 0.252806V0.25H9.89644L11.75 2.10358ZM8.98079 2.02778V3.75H6.25005V2.02778H8.98079ZM8.98079 6.9167V11.75H3.01926V6.9167H8.98079Z" fill="#848484" stroke="#848484" stroke-width="0.5"/>
</svg>
