<svg width="12" height="12" viewBox="0 0 12 12" fill="none" xmlns="http://www.w3.org/2000/svg">
<path fill-rule="evenodd" clip-rule="evenodd" d="M6.00005 4H9.23079V1.77778H6.00005V4ZM2.76926 12H9.23079V6.6667H2.76926V12ZM12 3.66651V0V2.00002L10 0H1.33337V0.00114225C1.22857 0.000446966 1.1181 4.96629e-05 1 4.96629e-05C0.447757 4.96629e-05 0 0.447761 0 1.00006V11C0 11.5523 0.447757 12 1 12C1.12934 12 1.2395 11.9986 1.33337 11.9946V12H1.84621V11.7618C1.87385 11.6294 1.84621 11.4258 1.84621 11.1111V6.66665C1.84621 5.97902 2.09819 5.77778 2.76926 5.77778H9.23079C9.9163 5.77778 10.1538 6.00683 10.1538 6.66665V12H10.6667V11.994C10.7615 12.0001 10.8715 12 10.9999 12C11.5523 12 12 11.5522 12 11V3.66666C12 3.66661 12 3.66656 12 3.66651ZM10.1539 3.55557C10.1539 4.22929 9.91635 4.44443 9.23084 4.44443H3.23079C2.54533 4.44443 2.30779 4.20153 2.30779 3.55557V2.22227C2.30779 1.54849 2.54528 1.3334 3.23079 1.3334H9.23079C9.93074 1.3334 10.1538 1.54854 10.1538 2.22227V3.55557H10.1539Z" fill='#006699'/>
</svg>
