<svg width="106.00000000000001" height="25" xmlns="http://www.w3.org/2000/svg">

 <g>
  <title>background</title>
  <rect fill="none" id="canvas_background" height="402" width="582" y="-1" x="-1"/>
 </g>
 <g>
  <title>Layer 1</title>
  <path stroke="null" id="svg_1" fill="white" d="m106,14.896022l0,-1.4328c0,-0.9552 -0.776,-1.7313 -1.731,-1.7313l-1.134,0l0,-10.44779c0,-0.71642 -0.597,-1.31344 -1.313,-1.31344l-97.52462,0c-0.7759,0 -1.37274,0.59702 -1.37274,1.37314l0,10.44779l-1.19369,0c-0.95496,0 -1.73086,0.7761 -1.73086,1.7313l-0.00009,1.4092l0.00001,1l0,1c0,0.8955 0.83567,1.6654 1.73094,1.6654l2.98423,0c0.89527,0 1.67116,-0.7761 1.67116,-1.6716l0,-1.4328l4.71506,0l0,3.7612c0,3.1044 1.5518,4.7164 5.1329,4.7164l9.4302,0c3.3423,0 4.8941,-1.6717 4.8941,-4.7164l0,-7.3433c0,-2.6866 -1.5518,-5.13436 -4.8941,-5.13436l-9.4302,0c-3.5214,0 -5.1329,1.61194 -5.1329,5.13436l0,2.985l-4.71506,0l0,-1.4328c0,-0.9552 -0.7759,-1.7313 -1.73085,-1.7313l-1.13401,0l0,-10.32839c0,-0.47761 0.35811,-0.83582 0.83559,-0.83582l97.28593,0c0.478,0 0.836,0.35821 0.836,0.83582l0,10.32839l-1.134,0c-0.955,0 -1.7312,0.7761 -1.7312,1.7313l0,1.4328l-4.7151,0l0,-8.17906l-1.7906,0l0,7.64176l-15.8761,0l0,-7.64176l-1.7905,0l0,17.19406l1.7905,0l0,-8l15.8761,0l0,8l1.7906,0l0,-8.4179l4.7151,0l0,1.4328c0,0.8955 0.7762,1.6716 1.6712,1.6716l2.984,0c0.895,0 1.731,-0.7761 1.731,-1.6716l0,-1.4589l0,-0.571zm-93.0483,-2.985c0,-2.38809 1.4324,-3.40301 3.3423,-3.40301l9.4302,0c1.9696,0 3.1036,2.08951 3.1036,3.40301l0,7.3433c0,2.388 -1.4921,2.9253 -3.0439,2.9253l-9.4899,0c-1.3131,0 -3.402,-0.4179 -3.402,-2.9253l0,-7.3433l0.0597,0zm-8.23652,0.4179c0.59684,0 1.134,0.4776 1.134,1.1343l0,3.4627c0,0.597 -0.47747,1.0746 -1.07432,1.0746l-2.98423,0c-0.59685,0 -1.07433,-0.4776 -1.07433,-1.0746l0,-3.4627c0,-0.597 0.47748,-1.1343 1.13401,-1.1343l2.86487,0zm100.74782,4.597c0,0.597 -0.537,1.0746 -1.134,1.0746l-2.984,0c-0.597,0 -1.075,-0.4776 -1.075,-1.0746l0,-3.4627c0,-0.597 0.478,-1.1343 1.134,-1.1343l2.925,0c0.597,0 1.134,0.4776 1.134,1.1343l0,3.4627z"/>
  <g stroke="null" id="svg_6">
   <path stroke="null" id="svg_5" fill="white" d="m32.711379,23.941613l0,-17.251179l1.780664,0l0,7.607272l3.442607,0l10.921344,-7.607272l3.264525,0l-12.345865,8.445866l12.345865,8.805313l-3.086424,0l-11.099446,-8.026639l-3.442607,0l0,8.026639l-1.780664,0z"/>
  </g>
  <g stroke="null" id="svg_11">
   <path stroke="null" id="svg_10" fill="white" d="m53.94168,23.912963l8.310214,-17.252175l2.730469,0l8.310244,17.252175l-1.958828,0l-2.077536,-4.133407l-11.337522,0l-2.077556,4.133407l-1.899484,0zm14.542912,-5.690885l-4.808115,-9.704297l-4.926743,9.704297l9.734857,0z"/>
  </g>
  <line stroke="null" stroke-linecap="null" stroke-linejoin="null" id="svg_13" y2="6.740207" x2="27.323941" y1="6.740207" x1="14.859152" fill-opacity="null" stroke-opacity="null" stroke-width="null" fill="none"/>
 </g>
</svg>