<svg width="106" height="25" viewBox="0 0 106 25" fill="none" xmlns="http://www.w3.org/2000/svg">
<path d="M32.4619 24.0599V6.77979H34.2456V14.3998H37.6939L48.6336 6.77979H51.9036L39.537 15.2398L51.9036 24.0599H48.812L37.6939 16.0198H34.2456V24.0599H32.4619Z" fill="white"/>
<path d="M53.8066 24.0599L62.1303 6.77979H64.8652L73.1889 24.0599H71.2269L69.146 19.9198H57.7901L55.7092 24.0599H53.8066ZM68.3731 18.3598L63.5572 8.63979L58.6225 18.3598H68.3731Z" fill="white"/>
<path d="M106 14.9639V13.5311C106 12.5759 105.224 11.7998 104.269 11.7998H103.135V1.35201C103.135 0.635589 102.538 0.0385742 101.822 0.0385742H4.29738C3.52148 0.0385742 2.92464 0.635589 2.92464 1.41171V11.8595H1.73095C0.775991 11.8595 8.85502e-05 12.6356 8.85502e-05 13.5908L0 15L8.27014e-06 16V17C8.27014e-06 17.8955 0.835676 18.6654 1.73095 18.6654H4.71518C5.61045 18.6654 6.38634 17.8893 6.38634 16.9938V15.561H11.1014V19.3222C11.1014 22.4266 12.6532 24.0386 16.2343 24.0386H25.6645C29.0068 24.0386 30.5586 22.3669 30.5586 19.3222V11.9789C30.5586 9.2923 29.0068 6.84454 25.6645 6.84454H16.2343C12.7129 6.84454 11.1014 8.45648 11.1014 11.9789V14.9639H6.38634V13.5311C6.38634 12.5759 5.61044 11.7998 4.65549 11.7998H3.52148V1.47141C3.52148 0.993798 3.87959 0.635589 4.35707 0.635589H101.643C102.121 0.635589 102.479 0.993798 102.479 1.47141V11.7998H101.345C100.39 11.7998 99.6138 12.5759 99.6138 13.5311V14.9639H94.8987V6.78484H93.1081V14.4266H77.232V6.78484H75.4415V23.9789H77.232V15.9789H93.1081V23.9789H94.8987V15.561H99.6138V16.9938C99.6138 17.8893 100.39 18.6654 101.285 18.6654H104.269C105.164 18.6654 106 17.8893 106 16.9938V15.5349V14.9639ZM12.9517 11.9789C12.9517 9.59081 14.3841 8.57589 16.294 8.57589H25.7242C27.6938 8.57589 28.8278 10.6654 28.8278 11.9789V19.3222C28.8278 21.7102 27.3357 22.2475 25.7839 22.2475H16.294C14.9809 22.2475 12.892 21.8296 12.892 19.3222V11.9789H12.9517ZM4.71518 12.3968C5.31202 12.3968 5.84918 12.8744 5.84918 13.5311V16.9938C5.84918 17.5908 5.37171 18.0684 4.77486 18.0684H1.79063C1.19378 18.0684 0.716302 17.5908 0.716302 16.9938V13.5311C0.716302 12.9341 1.19378 12.3968 1.85031 12.3968H4.71518ZM105.463 16.9938C105.463 17.5908 104.926 18.0684 104.329 18.0684H101.345C100.748 18.0684 100.27 17.5908 100.27 16.9938V13.5311C100.27 12.9341 100.748 12.3968 101.404 12.3968H104.329C104.926 12.3968 105.463 12.8744 105.463 13.5311V16.9938Z" fill="white"/>
</svg>
