<svg width="16" height="16" viewBox="0 0 16 16" fill="none" xmlns="http://www.w3.org/2000/svg">
<path fill-rule="evenodd" clip-rule="evenodd" d="M8.00007 5.33333H12.3077V2.37038H8.00007V5.33333ZM3.69235 16H12.3077V8.88893H3.69235V16ZM16 4.88869V0V2.6667L13.3333 0H1.77782V0.001523C1.6381 0.000595955 1.4908 6.62172e-05 1.33333 6.62172e-05C0.597009 6.62172e-05 0 0.597014 0 1.33342V14.6667C0 15.4031 0.597009 16 1.33333 16C1.50579 16 1.65267 15.9981 1.77782 15.9928V15.9999H2.46161V15.6824C2.49847 15.5058 2.46161 15.2345 2.46161 14.8148V8.88887C2.46161 7.97202 2.79759 7.70371 3.69235 7.70371H12.3077C13.2217 7.70371 13.5385 8.00911 13.5385 8.88887V15.9999H14.2222V15.9921C14.3486 16.0002 14.4954 15.9999 14.6666 15.9999C15.4031 15.9999 16 15.4029 16 14.6667V4.88888C16 4.88882 16 4.88875 16 4.88869ZM13.5385 4.74076C13.5385 5.63906 13.2218 5.92591 12.3078 5.92591H4.30772C3.39378 5.92591 3.07705 5.60204 3.07705 4.74076V2.96302C3.07705 2.06465 3.39371 1.77787 4.30772 1.77787H12.3077C13.241 1.77787 13.5385 2.06472 13.5385 2.96302V4.74076H13.5385Z" fill="#00649C"/>
</svg>
