<svg width="20" height="20" viewBox="0 0 20 20" fill="none" xmlns="http://www.w3.org/2000/svg">
<path d="M16.7607 7.21655L16.7606 7.21613C16.3323 6.1685 16.6087 4.95239 17.4446 4.18562L17.4453 4.18504C17.4661 4.16597 17.4694 4.13326 17.4509 4.10974L17.4506 4.10938C17.0049 3.54334 16.4986 3.03253 15.9466 2.59035L15.9463 2.59009L16.7607 7.21655ZM16.7607 7.21655C17.1807 8.24118 18.1798 8.89721 19.2941 8.89721C19.3041 8.89721 19.3233 8.89935 19.3485 8.90794C19.3734 8.91643 19.3972 8.92884 19.4165 8.94281C19.4293 8.9521 19.4375 8.96016 19.4423 8.96555C19.5205 9.67886 19.5187 10.3984 19.4359 11.1051C19.4344 11.1176 19.4274 11.1323 19.4133 11.1441C19.3991 11.156 19.3891 11.1558 19.3877 11.1557L19.3739 11.1546L19.3601 11.1542L19.2365 11.151L19.2365 11.1508M16.7607 7.21655L19.2365 11.1508M12.8126 3.28323L12.8113 3.28267C11.7542 2.83801 11.0901 1.76897 11.1552 0.622344L11.1552 0.620994C11.1569 0.592551 11.1367 0.566829 11.1058 0.563229L11.1636 0.0665864M12.8126 3.28323L16.7166 12.8132C16.2724 13.872 16.5507 15.1004 17.4024 15.8717L17.4026 15.8719C17.4241 15.8914 17.4269 15.9245 17.4084 15.9475L17.4079 15.9481C16.9568 16.51 16.4408 17.0204 15.8736 17.4655C15.8469 17.4855 15.8136 17.4811 15.7934 17.4591L15.4253 17.7975M12.8126 3.28323C13.8369 3.71061 15.1331 3.41305 15.8703 2.59663L12.8126 3.28323ZM11.1636 0.0665864L11.1062 0.563275C10.3962 0.481163 9.68046 0.478655 8.96904 0.557584L8.96876 0.557615C8.93959 0.560835 8.91745 0.585802 8.91847 0.616035C8.95799 1.74978 8.28716 2.79977 7.23897 3.22911L7.23852 3.22929C6.22544 3.6431 4.93929 3.34782 4.20403 2.53917L4.57398 2.2028M11.1636 0.0665864C10.4166 -0.0198089 9.66311 -0.0224878 8.91391 0.0606332L11.6544 0.650666C11.6719 0.356505 11.4569 0.100743 11.1636 0.0665864ZM4.57398 2.2028L4.2046 2.53979C4.18514 2.51846 4.15135 2.51475 4.12703 2.53345C3.5579 2.98009 3.04057 3.49129 2.59175 4.05138L2.59125 4.05201C2.57325 4.0744 2.57498 4.10785 2.59731 4.12856C3.44922 4.90038 3.72551 6.12854 3.28149 7.18728L3.2814 7.18751C2.84889 8.21734 1.79775 8.84565 0.64452 8.84565H0.636484L0.628452 8.84539C0.607416 8.84471 0.595114 8.84786 0.589388 8.84985C0.583657 8.85184 0.58084 8.85391 0.579258 8.8553C0.577383 8.85694 0.567006 8.86664 0.563397 8.89577C0.480951 9.60069 0.479053 10.3197 0.556921 11.0318C0.562031 11.0373 0.570415 11.045 0.583077 11.054C0.603775 11.0686 0.629533 11.0817 0.656871 11.0908C0.68213 11.0992 0.702376 11.102 0.714958 11.1024C1.79414 11.0788 2.8118 11.7447 3.23837 12.7828L3.2385 12.7831C3.66835 13.8311 3.39161 15.0466 2.555 15.8138C2.5329 15.8341 2.53091 15.8671 2.54849 15.8894L2.54923 15.8904C2.99025 16.4521 3.49662 16.9636 4.05143 17.4101L4.05165 17.4103C4.07386 17.4282 4.10719 17.4268 4.12846 17.4037C4.8673 16.5868 6.16298 16.2887 7.18496 16.7173C8.24495 17.1607 8.90918 18.2301 8.84413 19.3773L8.84407 19.3784C8.84236 19.4073 8.86381 19.4331 8.8929 19.4365L8.89363 19.4365C9.25642 19.4789 9.6215 19.5 9.98771 19.5C10.3353 19.5 10.6828 19.4809 11.0302 19.4423L11.0306 19.4422C11.0592 19.4391 11.0815 19.4148 11.0808 19.3839C11.0401 18.25 11.7124 17.1999 12.7593 16.7713L12.7597 16.7711C13.7791 16.3548 15.0604 16.6538 15.7951 17.4609L15.4253 17.7975M4.57398 2.2028C4.37737 1.9873 4.04839 1.96081 3.81934 2.13933C3.22001 2.60955 2.67492 3.14802 2.20157 3.73872L7.04945 2.76642C6.23201 3.10032 5.16885 2.85706 4.57398 2.2028ZM15.4253 17.7975C15.623 18.0125 15.9497 18.0385 16.18 17.8606L11.5805 19.3665C11.547 18.4398 12.0974 17.5826 12.9487 17.234C13.7717 16.8979 14.8304 17.1439 15.4253 17.7975ZM19.2365 11.1508H19.2235M19.2365 11.1508H19.2235M19.2235 11.1508C18.1396 11.1508 17.1351 11.8149 16.7167 12.813L19.2235 11.1508ZM6.18006 10.0212C6.18006 12.1367 7.90009 13.8567 10.0156 13.8567C12.1311 13.8567 13.8511 12.1367 13.8511 10.0212C13.8511 7.90573 12.1311 6.18561 10.0156 6.18561C7.90008 6.18561 6.18006 7.90573 6.18006 10.0212Z" fill="#848484" stroke="#848484"/>
</svg>
