<svg width="20" height="20" viewBox="0 0 20 20" fill="none" xmlns="http://www.w3.org/2000/svg">
<rect x="0.25" y="0.25" width="19.5" height="19.5" rx="4.75" fill="white" stroke="#848484" stroke-width="0.5"/>
<path d="M15.6407 6.53961C15.6717 6.59188 15.7253 6.64866 15.8207 6.68778C15.9387 6.7363 16.0568 6.73888 16.1432 6.74077L16.1445 6.7408M15.6407 6.53961L16.782 6.49628C16.7843 6.49813 16.7867 6.5 16.789 6.50187C16.8182 6.52506 16.8489 6.54939 16.8868 6.57392C17.0117 6.65227 17.0371 6.80069 16.9436 6.90532C16.8882 6.9671 16.8032 7 16.7173 7C16.6585 7 16.5991 6.98485 16.5483 6.95289M15.6407 6.53961L15.6381 6.5351L15.6236 6.54335C15.6144 6.54854 15.6052 6.55356 15.5969 6.55806C15.3508 6.69382 15.143 6.71407 14.9768 6.61881L15.4289 6.36993C15.4456 6.36074 15.4621 6.35192 15.4786 6.34365C15.4792 6.34331 15.4799 6.34298 15.4806 6.34264C15.4925 6.33665 15.5044 6.33095 15.5163 6.32561C15.5959 6.28993 15.675 6.27013 15.7642 6.28566C15.772 6.28713 15.7794 6.2887 15.7863 6.29036M15.6407 6.53961L16.1494 6.51733M16.1445 6.7408L16.145 6.74081C16.1819 6.74152 16.2321 6.74248 16.2473 6.74814M16.1445 6.7408L16.1488 6.51732C16.1402 6.51722 16.1317 6.51702 16.125 6.51687L16.1237 6.51684L15.9641 6.51313L15.9439 6.46675M16.1445 6.7408L16.1494 6.51733M16.2473 6.74814C16.3005 6.76779 16.3318 6.79193 16.3929 6.84022M16.2473 6.74814L16.3279 6.53188L16.3346 6.51385C16.3013 6.50146 16.2701 6.49772 16.2603 6.49653L16.2599 6.49649C16.2447 6.49466 16.2297 6.49363 16.2176 6.49297C16.1972 6.49187 16.1754 6.49136 16.1586 6.49103M16.2473 6.74814L16.3274 6.53178C16.2734 6.52059 16.2173 6.5186 16.1559 6.51737M16.3929 6.84022C16.4386 6.87644 16.487 6.91407 16.5483 6.95289M16.3929 6.84022L16.548 6.64416C16.5927 6.67953 16.6324 6.71028 16.682 6.74167L16.5483 6.95289M16.3929 6.84022L16.548 6.64416C16.5462 6.64276 16.5444 6.64136 16.5427 6.63996C16.5196 6.62169 16.4963 6.60325 16.4707 6.58551C16.5317 6.61739 16.578 6.65365 16.6267 6.69222L16.6268 6.69232C16.6292 6.69421 16.6317 6.69617 16.6342 6.6982C16.6519 6.71225 16.6737 6.72956 16.6992 6.74812C16.6914 6.74643 16.6854 6.7438 16.6813 6.74121L16.5483 6.95289M16.1559 6.51737C16.1568 6.51738 16.1577 6.51738 16.1586 6.51738V6.49103M16.1559 6.51737C16.1552 6.51736 16.1544 6.51734 16.1537 6.51733L16.1542 6.49094M16.1559 6.51737C16.1537 6.51737 16.1516 6.51735 16.1494 6.51733M16.1586 6.49103V6.26738L16.1542 6.49094M16.1586 6.49103C16.1571 6.491 16.1556 6.49097 16.1542 6.49094M16.1542 6.49094C16.1532 6.49092 16.1522 6.4909 16.1513 6.49089L16.15 6.49086L16.1494 6.51733M15.7863 6.29036L15.8553 6.41122C15.8585 6.41684 15.8631 6.42326 15.8708 6.4301C15.8783 6.43687 15.8918 6.44676 15.9156 6.4565L15.9157 6.45654C15.925 6.46037 15.9344 6.46375 15.9439 6.46675M15.7863 6.29036C15.8676 6.30985 15.8894 6.34183 15.9003 6.36682L15.9439 6.46675M15.7863 6.29036L15.7696 6.26109L16.1496 6.49085C16.1411 6.49067 16.1326 6.49046 16.1243 6.49023C16.0577 6.48832 15.9991 6.48413 15.9439 6.46675M15.3488 5.99942C15.3647 5.94555 15.3809 5.89094 15.3927 5.83644C15.3079 5.86691 15.2386 5.90395 15.1878 5.9319L15.2006 5.95521M15.3488 5.99942L15.2006 5.95521M15.3488 5.99942L15.2008 5.95558M15.3488 5.99942C15.336 6.04203 15.3188 6.10121 15.3084 6.15092L15.2008 5.95558M15.2006 5.95521L15.1092 5.92793C15.0967 5.96994 15.0766 6.03833 15.0637 6.09946L15.0163 6.32472C14.9774 6.2751 14.9698 6.20603 15.0159 6.03825L15.1238 5.64574C15.1253 5.64579 15.1268 5.64585 15.1283 5.64592C15.1431 5.64698 15.1533 5.65129 15.1589 5.65465M15.2006 5.95521L15.1589 5.65465M15.2008 5.95558L15.1091 5.92838C15.1515 5.78505 15.168 5.71023 15.1589 5.65465M15.2008 5.95558L15.1589 5.65465M13.6732 6.06117L13.7392 5.84083L13.6735 6.06125M13.6732 6.06117C13.6733 6.0612 13.6734 6.06122 13.6735 6.06125M13.6732 6.06117C13.6559 6.05729 13.6385 6.05274 13.6209 6.04748L13.6207 6.04743C13.5931 6.0392 13.5674 6.02941 13.5434 6.01813M13.6732 6.06117L13.5434 6.01813M13.6735 6.06125L13.6678 6.08042C13.6499 6.07506 13.6329 6.06866 13.6167 6.06135C13.6167 6.06133 13.6166 6.06131 13.6166 6.06129C13.5898 6.04913 13.5654 6.0345 13.5434 6.01813M13.6735 6.06125C13.9453 6.12212 14.1779 6.0166 14.428 5.87811C14.428 5.8781 14.4281 5.87809 14.4281 5.87808C14.4515 5.86509 14.4752 5.85181 14.499 5.83835L14.4991 5.83829L14.5013 5.83704C14.5518 5.8085 14.6061 5.77785 14.6597 5.75005L15.1356 5.50318M13.5434 6.01813L15.128 5.6305L15.1356 5.50318M15.1356 5.50318L15.137 5.50246L15.1419 5.39628L15.1356 5.50318ZM14.8144 3.26885C14.672 3.23522 14.4602 3.2319 14.1917 3.38386C14.2528 3.34425 14.3231 3.30522 14.3986 3.27584C14.5104 3.23237 14.6634 3.19863 14.821 3.25083L14.8149 3.26898M14.8144 3.26885L14.7424 3.48815L14.8149 3.26898M14.8144 3.26885C14.8146 3.26889 14.8148 3.26894 14.8149 3.26898M14.8144 3.26885L14.8149 3.26898M15.1568 5.64401L15.4002 5.58707L15.1567 5.64395C15.1567 5.64397 15.1568 5.64399 15.1568 5.64401ZM13.3759 4.89427L13.3758 4.89447L13.6191 4.95197L13.3759 4.89405C13.3759 4.89412 13.3759 4.89419 13.3759 4.89427ZM15.4302 4.07522C15.425 4.07743 15.4176 4.07958 15.4077 4.08039L15.4302 4.07522ZM14.8707 3.2846C14.8708 3.28465 14.871 3.2847 14.8711 3.28474C14.8713 3.28479 14.8714 3.28484 14.8715 3.28488L14.8757 3.27212C14.8754 3.272 14.8752 3.27189 14.8749 3.27177L14.8707 3.2846ZM14.028 3.49167L13.878 3.29171L14.0279 3.49172L14.028 3.49167Z" fill="#848484" stroke="#848484" stroke-width="0.5"/>
<path d="M15.6407 11.5396C15.6717 11.5919 15.7253 11.6487 15.8207 11.6878C15.9387 11.7363 16.0568 11.7389 16.1432 11.7408L16.1445 11.7408M15.6407 11.5396L16.782 11.4963C16.7843 11.4981 16.7867 11.5 16.789 11.5019C16.8182 11.5251 16.8489 11.5494 16.8868 11.5739C17.0117 11.6523 17.0371 11.8007 16.9436 11.9053C16.8882 11.9671 16.8032 12 16.7173 12C16.6585 12 16.5991 11.9849 16.5483 11.9529M15.6407 11.5396L15.6381 11.5351L15.6236 11.5434C15.6144 11.5485 15.6052 11.5536 15.5969 11.5581C15.3508 11.6938 15.143 11.7141 14.9768 11.6188L15.4289 11.3699C15.4456 11.3607 15.4621 11.3519 15.4786 11.3436C15.4792 11.3433 15.4799 11.343 15.4806 11.3426C15.4925 11.3366 15.5044 11.3309 15.5163 11.3256C15.5959 11.2899 15.675 11.2701 15.7642 11.2857C15.772 11.2871 15.7794 11.2887 15.7863 11.2904M15.6407 11.5396L16.1494 11.5173M16.1445 11.7408L16.145 11.7408C16.1819 11.7415 16.2321 11.7425 16.2473 11.7481M16.1445 11.7408L16.1488 11.5173C16.1402 11.5172 16.1317 11.517 16.125 11.5169L16.1237 11.5168L15.9641 11.5131L15.9439 11.4667M16.1445 11.7408L16.1494 11.5173M16.2473 11.7481C16.3005 11.7678 16.3318 11.7919 16.3929 11.8402M16.2473 11.7481L16.3279 11.5319L16.3346 11.5138C16.3013 11.5015 16.2701 11.4977 16.2603 11.4965L16.2599 11.4965C16.2447 11.4947 16.2297 11.4936 16.2176 11.493C16.1972 11.4919 16.1754 11.4914 16.1586 11.491M16.2473 11.7481L16.3274 11.5318C16.2734 11.5206 16.2173 11.5186 16.1559 11.5174M16.3929 11.8402C16.4386 11.8764 16.487 11.9141 16.5483 11.9529M16.3929 11.8402L16.548 11.6442C16.5927 11.6795 16.6324 11.7103 16.682 11.7417L16.5483 11.9529M16.3929 11.8402L16.548 11.6442C16.5462 11.6428 16.5444 11.6414 16.5427 11.64C16.5196 11.6217 16.4963 11.6032 16.4707 11.5855C16.5317 11.6174 16.578 11.6536 16.6267 11.6922L16.6268 11.6923C16.6292 11.6942 16.6317 11.6962 16.6342 11.6982C16.6519 11.7122 16.6737 11.7296 16.6992 11.7481C16.6914 11.7464 16.6854 11.7438 16.6813 11.7412L16.5483 11.9529M16.1559 11.5174C16.1568 11.5174 16.1577 11.5174 16.1586 11.5174V11.491M16.1559 11.5174C16.1552 11.5174 16.1544 11.5173 16.1537 11.5173L16.1542 11.4909M16.1559 11.5174C16.1537 11.5174 16.1516 11.5173 16.1494 11.5173M16.1586 11.491V11.2674L16.1542 11.4909M16.1586 11.491C16.1571 11.491 16.1556 11.491 16.1542 11.4909M16.1542 11.4909C16.1532 11.4909 16.1522 11.4909 16.1513 11.4909L16.15 11.4909L16.1494 11.5173M15.7863 11.2904L15.8553 11.4112C15.8585 11.4168 15.8631 11.4233 15.8708 11.4301C15.8783 11.4369 15.8918 11.4468 15.9156 11.4565L15.9157 11.4565C15.925 11.4604 15.9344 11.4638 15.9439 11.4667M15.7863 11.2904C15.8676 11.3098 15.8894 11.3418 15.9003 11.3668L15.9439 11.4667M15.7863 11.2904L15.7696 11.2611L16.1496 11.4909C16.1411 11.4907 16.1326 11.4905 16.1243 11.4902C16.0577 11.4883 15.9991 11.4841 15.9439 11.4667M15.3488 10.9994C15.3647 10.9455 15.3809 10.8909 15.3927 10.8364C15.3079 10.8669 15.2386 10.904 15.1878 10.9319L15.2006 10.9552M15.3488 10.9994L15.2006 10.9552M15.3488 10.9994L15.2008 10.9556M15.3488 10.9994C15.336 11.042 15.3188 11.1012 15.3084 11.1509L15.2008 10.9556M15.2006 10.9552L15.1092 10.9279C15.0967 10.9699 15.0766 11.0383 15.0637 11.0995L15.0163 11.3247C14.9774 11.2751 14.9698 11.206 15.0159 11.0382L15.1238 10.6457C15.1253 10.6458 15.1268 10.6459 15.1283 10.6459C15.1431 10.647 15.1533 10.6513 15.1589 10.6546M15.2006 10.9552L15.1589 10.6546M15.2008 10.9556L15.1091 10.9284C15.1515 10.7851 15.168 10.7102 15.1589 10.6546M15.2008 10.9556L15.1589 10.6546M13.6732 11.0612L13.7392 10.8408L13.6735 11.0612M13.6732 11.0612C13.6733 11.0612 13.6734 11.0612 13.6735 11.0612M13.6732 11.0612C13.6559 11.0573 13.6385 11.0527 13.6209 11.0475L13.6207 11.0474C13.5931 11.0392 13.5674 11.0294 13.5434 11.0181M13.6732 11.0612L13.5434 11.0181M13.6735 11.0612L13.6678 11.0804C13.6499 11.0751 13.6329 11.0687 13.6167 11.0614C13.6167 11.0613 13.6166 11.0613 13.6166 11.0613C13.5898 11.0491 13.5654 11.0345 13.5434 11.0181M13.6735 11.0612C13.9453 11.1221 14.1779 11.0166 14.428 10.8781C14.428 10.8781 14.4281 10.8781 14.4281 10.8781C14.4515 10.8651 14.4752 10.8518 14.499 10.8383L14.4991 10.8383L14.5013 10.837C14.5518 10.8085 14.6061 10.7778 14.6597 10.7501L15.1356 10.5032M13.5434 11.0181L15.128 10.6305L15.1356 10.5032M15.1356 10.5032L15.137 10.5025L15.1419 10.3963L15.1356 10.5032ZM14.8144 8.26885C14.672 8.23522 14.4602 8.2319 14.1917 8.38386C14.2528 8.34425 14.3231 8.30522 14.3986 8.27584C14.5104 8.23237 14.6634 8.19863 14.821 8.25083L14.8149 8.26898M14.8144 8.26885L14.7424 8.48815L14.8149 8.26898M14.8144 8.26885C14.8146 8.26889 14.8148 8.26894 14.8149 8.26898M14.8144 8.26885L14.8149 8.26898M15.1568 10.644L15.4002 10.5871L15.1567 10.644C15.1567 10.644 15.1568 10.644 15.1568 10.644ZM13.3759 9.89427L13.3758 9.89447L13.6191 9.95197L13.3759 9.89405C13.3759 9.89412 13.3759 9.89419 13.3759 9.89427ZM15.4302 9.07522C15.425 9.07743 15.4176 9.07958 15.4077 9.08039L15.4302 9.07522ZM14.8707 8.2846C14.8708 8.28465 14.871 8.2847 14.8711 8.28474C14.8713 8.28479 14.8714 8.28484 14.8715 8.28488L14.8757 8.27212C14.8754 8.272 14.8752 8.27189 14.8749 8.27177L14.8707 8.2846ZM14.028 8.49167L13.878 8.29171L14.0279 8.49172L14.028 8.49167Z" fill="#848484" stroke="#848484" stroke-width="0.5"/>
<path d="M15.6407 16.5396C15.6717 16.5919 15.7253 16.6487 15.8207 16.6878C15.9387 16.7363 16.0568 16.7389 16.1432 16.7408L16.1445 16.7408M15.6407 16.5396L16.782 16.4963C16.7843 16.4981 16.7867 16.5 16.789 16.5019C16.8182 16.5251 16.8489 16.5494 16.8868 16.5739C17.0117 16.6523 17.0371 16.8007 16.9436 16.9053C16.8882 16.9671 16.8032 17 16.7173 17C16.6585 17 16.5991 16.9849 16.5483 16.9529M15.6407 16.5396L15.6381 16.5351L15.6236 16.5434C15.6144 16.5485 15.6052 16.5536 15.5969 16.5581C15.3508 16.6938 15.143 16.7141 14.9768 16.6188L15.4289 16.3699C15.4456 16.3607 15.4621 16.3519 15.4786 16.3436C15.4792 16.3433 15.4799 16.343 15.4806 16.3426C15.4925 16.3366 15.5044 16.3309 15.5163 16.3256C15.5959 16.2899 15.675 16.2701 15.7642 16.2857C15.772 16.2871 15.7794 16.2887 15.7863 16.2904M15.6407 16.5396L16.1494 16.5173M16.1445 16.7408L16.145 16.7408C16.1819 16.7415 16.2321 16.7425 16.2473 16.7481M16.1445 16.7408L16.1488 16.5173C16.1402 16.5172 16.1317 16.517 16.125 16.5169L16.1237 16.5168L15.9641 16.5131L15.9439 16.4667M16.1445 16.7408L16.1494 16.5173M16.2473 16.7481C16.3005 16.7678 16.3318 16.7919 16.3929 16.8402M16.2473 16.7481L16.3279 16.5319L16.3346 16.5138C16.3013 16.5015 16.2701 16.4977 16.2603 16.4965L16.2599 16.4965C16.2447 16.4947 16.2297 16.4936 16.2176 16.493C16.1972 16.4919 16.1754 16.4914 16.1586 16.491M16.2473 16.7481L16.3274 16.5318C16.2734 16.5206 16.2173 16.5186 16.1559 16.5174M16.3929 16.8402C16.4386 16.8764 16.487 16.9141 16.5483 16.9529M16.3929 16.8402L16.548 16.6442C16.5927 16.6795 16.6324 16.7103 16.682 16.7417L16.5483 16.9529M16.3929 16.8402L16.548 16.6442C16.5462 16.6428 16.5444 16.6414 16.5427 16.64C16.5196 16.6217 16.4963 16.6032 16.4707 16.5855C16.5317 16.6174 16.578 16.6536 16.6267 16.6922L16.6268 16.6923C16.6292 16.6942 16.6317 16.6962 16.6342 16.6982C16.6519 16.7122 16.6737 16.7296 16.6992 16.7481C16.6914 16.7464 16.6854 16.7438 16.6813 16.7412L16.5483 16.9529M16.1559 16.5174C16.1568 16.5174 16.1577 16.5174 16.1586 16.5174V16.491M16.1559 16.5174C16.1552 16.5174 16.1544 16.5173 16.1537 16.5173L16.1542 16.4909M16.1559 16.5174C16.1537 16.5174 16.1516 16.5173 16.1494 16.5173M16.1586 16.491V16.2674L16.1542 16.4909M16.1586 16.491C16.1571 16.491 16.1556 16.491 16.1542 16.4909M16.1542 16.4909C16.1532 16.4909 16.1522 16.4909 16.1513 16.4909L16.15 16.4909L16.1494 16.5173M15.7863 16.2904L15.8553 16.4112C15.8585 16.4168 15.8631 16.4233 15.8708 16.4301C15.8783 16.4369 15.8918 16.4468 15.9156 16.4565L15.9157 16.4565C15.925 16.4604 15.9344 16.4638 15.9439 16.4667M15.7863 16.2904C15.8676 16.3098 15.8894 16.3418 15.9003 16.3668L15.9439 16.4667M15.7863 16.2904L15.7696 16.2611L16.1496 16.4909C16.1411 16.4907 16.1326 16.4905 16.1243 16.4902C16.0577 16.4883 15.9991 16.4841 15.9439 16.4667M15.3488 15.9994C15.3647 15.9455 15.3809 15.8909 15.3927 15.8364C15.3079 15.8669 15.2386 15.904 15.1878 15.9319L15.2006 15.9552M15.3488 15.9994L15.2006 15.9552M15.3488 15.9994L15.2008 15.9556M15.3488 15.9994C15.336 16.042 15.3188 16.1012 15.3084 16.1509L15.2008 15.9556M15.2006 15.9552L15.1092 15.9279C15.0967 15.9699 15.0766 16.0383 15.0637 16.0995L15.0163 16.3247C14.9774 16.2751 14.9698 16.206 15.0159 16.0382L15.1238 15.6457C15.1253 15.6458 15.1268 15.6459 15.1283 15.6459C15.1431 15.647 15.1533 15.6513 15.1589 15.6546M15.2006 15.9552L15.1589 15.6546M15.2008 15.9556L15.1091 15.9284C15.1515 15.7851 15.168 15.7102 15.1589 15.6546M15.2008 15.9556L15.1589 15.6546M13.6732 16.0612L13.7392 15.8408L13.6735 16.0612M13.6732 16.0612C13.6733 16.0612 13.6734 16.0612 13.6735 16.0612M13.6732 16.0612C13.6559 16.0573 13.6385 16.0527 13.6209 16.0475L13.6207 16.0474C13.5931 16.0392 13.5674 16.0294 13.5434 16.0181M13.6732 16.0612L13.5434 16.0181M13.6735 16.0612L13.6678 16.0804C13.6499 16.0751 13.6329 16.0687 13.6167 16.0614C13.6167 16.0613 13.6166 16.0613 13.6166 16.0613C13.5898 16.0491 13.5654 16.0345 13.5434 16.0181M13.6735 16.0612C13.9453 16.1221 14.1779 16.0166 14.428 15.8781C14.428 15.8781 14.4281 15.8781 14.4281 15.8781C14.4515 15.8651 14.4752 15.8518 14.499 15.8383L14.4991 15.8383L14.5013 15.837C14.5518 15.8085 14.6061 15.7778 14.6597 15.7501L15.1356 15.5032M13.5434 16.0181L15.128 15.6305L15.1356 15.5032M15.1356 15.5032L15.137 15.5025L15.1419 15.3963L15.1356 15.5032ZM14.8144 13.2689C14.672 13.2352 14.4602 13.2319 14.1917 13.3839C14.2528 13.3443 14.3231 13.3052 14.3986 13.2758C14.5104 13.2324 14.6634 13.1986 14.821 13.2508L14.8149 13.269M14.8144 13.2689L14.7424 13.4882L14.8149 13.269M14.8144 13.2689C14.8146 13.2689 14.8148 13.2689 14.8149 13.269M14.8144 13.2689L14.8149 13.269M15.1568 15.644L15.4002 15.5871L15.1567 15.644C15.1567 15.644 15.1568 15.644 15.1568 15.644ZM13.3759 14.8943L13.3758 14.8945L13.6191 14.952L13.3759 14.8941C13.3759 14.8941 13.3759 14.8942 13.3759 14.8943ZM15.4302 14.0752C15.425 14.0774 15.4176 14.0796 15.4077 14.0804L15.4302 14.0752ZM14.8707 13.2846C14.8708 13.2847 14.871 13.2847 14.8711 13.2847C14.8713 13.2848 14.8714 13.2848 14.8715 13.2849L14.8757 13.2721C14.8754 13.272 14.8752 13.2719 14.8749 13.2718L14.8707 13.2846ZM14.028 13.4917L13.878 13.2917L14.0279 13.4917L14.028 13.4917Z" fill="#848484" stroke="#848484" stroke-width="0.5"/>
<rect x="2" y="4" width="9" height="2" rx="1" fill="#848484"/>
<rect x="2" y="9" width="9" height="2" rx="1" fill="#848484"/>
<rect x="2" y="14" width="9" height="2" rx="1" fill="#848484"/>
</svg>
